<mxfile host="drawio-plugin" modified="2024-08-04T21:10:09.151Z" agent="Mozilla/5.0 (Windows NT 10.0; Win64; x64) AppleWebKit/537.36 (KHTML, like Gecko) Chrome/122.0.0.0 Safari/537.36" etag="fucJ-9uliQfskSHaI_AZ" version="22.1.22" type="embed">
  <diagram id="EUNj880BrhCWBs-la3PF" name="Page-1">
    <mxGraphModel dx="1517" dy="369" grid="1" gridSize="10" guides="1" tooltips="1" connect="1" arrows="1" fold="1" page="1" pageScale="1" pageWidth="850" pageHeight="1100" math="0" shadow="0">
      <root>
        <mxCell id="0" />
        <mxCell id="1" parent="0" />
        <mxCell id="5" value="" style="rounded=0;whiteSpace=wrap;html=1;strokeColor=#97D077;fillColor=none;" parent="1" vertex="1">
          <mxGeometry x="120" y="675" width="730" height="205" as="geometry" />
        </mxCell>
        <mxCell id="8" value="Controller" style="rounded=1;whiteSpace=wrap;html=1;strokeColor=#9673a6;fillColor=#BD93F9;dashed=1;" parent="1" vertex="1">
          <mxGeometry x="731.25" y="755" width="100" height="50" as="geometry" />
        </mxCell>
        <mxCell id="9" value="ValidationComposite" style="rounded=1;whiteSpace=wrap;html=1;strokeColor=#8BE9FD;fillColor=#8BE9FD;" parent="1" vertex="1">
          <mxGeometry x="721.25" y="815" width="120" height="50" as="geometry" />
        </mxCell>
        <mxCell id="197" value="" style="edgeStyle=orthogonalEdgeStyle;rounded=0;orthogonalLoop=1;jettySize=auto;html=1;" parent="1" source="11" target="141" edge="1">
          <mxGeometry relative="1" as="geometry" />
        </mxCell>
        <mxCell id="240" value="" style="edgeStyle=orthogonalEdgeStyle;rounded=0;orthogonalLoop=1;jettySize=auto;html=1;entryX=0;entryY=0.5;entryDx=0;entryDy=0;exitX=0.25;exitY=0;exitDx=0;exitDy=0;" parent="1" source="11" target="241" edge="1">
          <mxGeometry relative="1" as="geometry">
            <mxPoint x="90" y="715" as="targetPoint" />
          </mxGeometry>
        </mxCell>
        <mxCell id="247" value="" style="edgeStyle=orthogonalEdgeStyle;rounded=0;orthogonalLoop=1;jettySize=auto;html=1;entryX=0.5;entryY=0;entryDx=0;entryDy=0;dashed=1;" edge="1" parent="1" source="11" target="8">
          <mxGeometry relative="1" as="geometry">
            <mxPoint x="668.1300000000001" y="705" as="targetPoint" />
          </mxGeometry>
        </mxCell>
        <mxCell id="11" value="PasswordRecoveryController" style="rounded=1;whiteSpace=wrap;html=1;strokeColor=#8BE9FD;fillColor=#8BE9FD;" parent="1" vertex="1">
          <mxGeometry x="418.13" y="680" width="170" height="50" as="geometry" />
        </mxCell>
        <mxCell id="57" value="&lt;span style=&quot;font-size: 15px;&quot;&gt;&lt;b&gt;APPLICATION&lt;br&gt;&lt;/b&gt;&lt;/span&gt;" style="text;html=1;align=center;verticalAlign=middle;resizable=0;points=[];autosize=1;strokeColor=none;fillColor=none;" parent="1" vertex="1">
          <mxGeometry x="729" y="675" width="120" height="30" as="geometry" />
        </mxCell>
        <mxCell id="58" value="" style="rounded=0;whiteSpace=wrap;html=1;strokeColor=#97D077;fillColor=none;" parent="1" vertex="1">
          <mxGeometry x="120" y="410" width="730" height="185" as="geometry" />
        </mxCell>
        <mxCell id="73" value="&lt;span style=&quot;font-size: 15px;&quot;&gt;&lt;b&gt;DOMAIN&lt;/b&gt;&lt;/span&gt;" style="text;html=1;align=center;verticalAlign=middle;resizable=0;points=[];autosize=1;strokeColor=none;fillColor=none;" parent="1" vertex="1">
          <mxGeometry x="769" y="410" width="80" height="30" as="geometry" />
        </mxCell>
        <mxCell id="81" value="PasswordRecovery" style="rounded=1;whiteSpace=wrap;html=1;strokeColor=#8BE9FD;fillColor=#8BE9FD;" parent="1" vertex="1">
          <mxGeometry x="428.13" y="530" width="150" height="50" as="geometry" />
        </mxCell>
        <mxCell id="93" value="" style="rounded=0;whiteSpace=wrap;html=1;strokeColor=none;strokeWidth=3;fillColor=#FF79C6;fontSize=13;fontColor=#F8F8F2;align=right;" parent="1" vertex="1">
          <mxGeometry x="-52" y="119" width="20" height="20" as="geometry" />
        </mxCell>
        <mxCell id="94" value="&lt;font color=&quot;#000000&quot;&gt;Entities&lt;/font&gt;" style="text;html=1;resizable=0;points=[];autosize=1;align=left;verticalAlign=middle;spacingTop=-4;fontSize=13;fontColor=#F8F8F2;" parent="1" vertex="1">
          <mxGeometry x="-30" y="119" width="70" height="20" as="geometry" />
        </mxCell>
        <mxCell id="95" value="" style="rounded=0;whiteSpace=wrap;html=1;strokeColor=none;strokeWidth=3;fillColor=#BD93F9;fontSize=13;fontColor=#F8F8F2;align=right;" parent="1" vertex="1">
          <mxGeometry x="-52" y="148" width="20" height="20" as="geometry" />
        </mxCell>
        <mxCell id="96" value="&lt;font color=&quot;#000000&quot;&gt;Abstraction&lt;/font&gt;" style="text;html=1;resizable=0;points=[];autosize=1;align=left;verticalAlign=middle;spacingTop=-4;fontSize=13;fontColor=#F8F8F2;" parent="1" vertex="1">
          <mxGeometry x="-30" y="148" width="90" height="20" as="geometry" />
        </mxCell>
        <mxCell id="97" value="" style="rounded=0;whiteSpace=wrap;html=1;strokeColor=none;strokeWidth=3;fillColor=#8BE9FD;fontSize=13;fontColor=#F8F8F2;align=right;" parent="1" vertex="1">
          <mxGeometry x="-52" y="179" width="20" height="20" as="geometry" />
        </mxCell>
        <mxCell id="98" value="&lt;font color=&quot;#000000&quot;&gt;Implementation&lt;/font&gt;" style="text;html=1;resizable=0;points=[];autosize=1;align=left;verticalAlign=middle;spacingTop=-4;fontSize=13;fontColor=#F8F8F2;" parent="1" vertex="1">
          <mxGeometry x="-30" y="179" width="110" height="20" as="geometry" />
        </mxCell>
        <mxCell id="99" value="" style="rounded=0;whiteSpace=wrap;html=1;strokeColor=none;strokeWidth=3;fillColor=#50FA7B;fontSize=13;fontColor=#F8F8F2;align=right;" parent="1" vertex="1">
          <mxGeometry x="-52" y="90" width="20" height="20" as="geometry" />
        </mxCell>
        <mxCell id="100" value="&lt;font color=&quot;#000000&quot;&gt;Layer&lt;/font&gt;" style="text;html=1;resizable=0;points=[];autosize=1;align=left;verticalAlign=middle;spacingTop=-4;fontSize=13;fontColor=#F8F8F2;strokeColor=none;" parent="1" vertex="1">
          <mxGeometry x="-30" y="90" width="60" height="20" as="geometry" />
        </mxCell>
        <mxCell id="101" value="" style="rounded=0;whiteSpace=wrap;html=1;strokeColor=none;strokeWidth=3;fillColor=#FF5555;fontSize=13;fontColor=#F8F8F2;align=right;" parent="1" vertex="1">
          <mxGeometry x="-52" y="210" width="20" height="20" as="geometry" />
        </mxCell>
        <mxCell id="102" value="&lt;font color=&quot;#000000&quot;&gt;External Lib&lt;/font&gt;" style="text;html=1;resizable=0;points=[];autosize=1;align=left;verticalAlign=middle;spacingTop=-4;fontSize=13;fontColor=#F8F8F2;" parent="1" vertex="1">
          <mxGeometry x="-30" y="210" width="90" height="20" as="geometry" />
        </mxCell>
        <mxCell id="104" value="IUserAdapter" style="rounded=1;whiteSpace=wrap;html=1;strokeColor=#9673a6;fillColor=#BD93F9;dashed=1;" parent="1" vertex="1">
          <mxGeometry x="130" y="450" width="150" height="50" as="geometry" />
        </mxCell>
        <mxCell id="109" value="" style="rounded=0;whiteSpace=wrap;html=1;strokeColor=#97D077;fillColor=default;" parent="1" vertex="1">
          <mxGeometry x="120" y="180" width="730" height="184" as="geometry" />
        </mxCell>
        <mxCell id="110" value="" style="edgeStyle=elbowEdgeStyle;elbow=vertical;endArrow=classic;html=1;curved=0;rounded=0;endSize=8;startSize=8;exitX=0.5;exitY=0;exitDx=0;exitDy=0;entryX=0.5;entryY=1;entryDx=0;entryDy=0;strokeColor=#6C8EBF;" parent="1" source="11" target="81" edge="1">
          <mxGeometry width="50" height="50" relative="1" as="geometry">
            <mxPoint x="610" y="530" as="sourcePoint" />
            <mxPoint x="660" y="480" as="targetPoint" />
          </mxGeometry>
        </mxCell>
        <mxCell id="234" value="" style="edgeStyle=orthogonalEdgeStyle;rounded=0;orthogonalLoop=1;jettySize=auto;html=1;" parent="1" source="113" target="233" edge="1">
          <mxGeometry relative="1" as="geometry" />
        </mxCell>
        <mxCell id="113" value="UserAdapter" style="rounded=1;whiteSpace=wrap;html=1;strokeColor=#8BE9FD;fillColor=#8BE9FD;" parent="1" vertex="1">
          <mxGeometry x="130" y="300" width="150" height="50" as="geometry" />
        </mxCell>
        <mxCell id="115" value="&lt;b style=&quot;border-color: var(--border-color);&quot;&gt;&lt;font style=&quot;border-color: var(--border-color); font-size: 15px;&quot;&gt;INFRA&lt;br&gt;&lt;/font&gt;&lt;/b&gt;" style="text;html=1;align=center;verticalAlign=middle;resizable=0;points=[];autosize=1;strokeColor=none;fillColor=none;" parent="1" vertex="1">
          <mxGeometry x="779" y="180" width="70" height="30" as="geometry" />
        </mxCell>
        <mxCell id="116" value="UserEntityMapper" style="rounded=1;whiteSpace=wrap;html=1;strokeColor=#8BE9FD;fillColor=#8BE9FD;" parent="1" vertex="1">
          <mxGeometry x="130" y="200" width="150" height="50" as="geometry" />
        </mxCell>
        <mxCell id="126" value="" style="endArrow=classic;html=1;rounded=0;entryX=0.5;entryY=1;entryDx=0;entryDy=0;fillColor=#dae8fc;strokeColor=#6c8ebf;exitX=0.5;exitY=0;exitDx=0;exitDy=0;" parent="1" source="113" target="116" edge="1">
          <mxGeometry width="50" height="50" relative="1" as="geometry">
            <mxPoint x="513.12" y="340" as="sourcePoint" />
            <mxPoint x="513.12" y="240" as="targetPoint" />
          </mxGeometry>
        </mxCell>
        <mxCell id="232" value="" style="edgeStyle=orthogonalEdgeStyle;rounded=0;orthogonalLoop=1;jettySize=auto;html=1;entryX=1;entryY=0.5;entryDx=0;entryDy=0;" parent="1" source="141" target="142" edge="1">
          <mxGeometry relative="1" as="geometry">
            <mxPoint x="366.25" y="805" as="targetPoint" />
          </mxGeometry>
        </mxCell>
        <mxCell id="141" value="ValidationBuilder" style="rounded=1;whiteSpace=wrap;html=1;strokeColor=#8BE9FD;fillColor=#8BE9FD;" parent="1" vertex="1">
          <mxGeometry x="446.25" y="780" width="113.75" height="50" as="geometry" />
        </mxCell>
        <mxCell id="142" value="RequiredFieldValidator" style="rounded=1;whiteSpace=wrap;html=1;strokeColor=#8BE9FD;fillColor=#8BE9FD;" parent="1" vertex="1">
          <mxGeometry x="130" y="780" width="152.5" height="50" as="geometry" />
        </mxCell>
        <mxCell id="161" value="" style="endArrow=classic;html=1;rounded=0;exitX=0.5;exitY=1;exitDx=0;exitDy=0;entryX=0.5;entryY=0;entryDx=0;entryDy=0;fillColor=#dae8fc;strokeColor=#6c8ebf;" parent="1" source="8" target="9" edge="1">
          <mxGeometry width="50" height="50" relative="1" as="geometry">
            <mxPoint x="640" y="880" as="sourcePoint" />
            <mxPoint x="690" y="830" as="targetPoint" />
          </mxGeometry>
        </mxCell>
        <mxCell id="169" value="" style="edgeStyle=elbowEdgeStyle;elbow=vertical;endArrow=classic;html=1;curved=0;rounded=0;endSize=8;startSize=8;entryX=0.5;entryY=1;entryDx=0;entryDy=0;strokeColor=#6C8EBF;exitX=0.5;exitY=0;exitDx=0;exitDy=0;" parent="1" source="104" target="113" edge="1">
          <mxGeometry width="50" height="50" relative="1" as="geometry">
            <mxPoint x="621.28" y="408" as="sourcePoint" />
            <mxPoint x="621.28" y="350" as="targetPoint" />
          </mxGeometry>
        </mxCell>
        <mxCell id="170" value="JPARepository" style="rounded=1;whiteSpace=wrap;html=1;strokeColor=#8BE9FD;fillColor=#FF5555;" parent="1" vertex="1">
          <mxGeometry x="350" y="100" width="150" height="50" as="geometry" />
        </mxCell>
        <mxCell id="178" value="IAuthAdapter" style="rounded=1;whiteSpace=wrap;html=1;strokeColor=#9673a6;fillColor=#BD93F9;dashed=1;" parent="1" vertex="1">
          <mxGeometry x="320" y="450" width="150" height="50" as="geometry" />
        </mxCell>
        <mxCell id="206" value="" style="edgeStyle=orthogonalEdgeStyle;rounded=0;orthogonalLoop=1;jettySize=auto;html=1;" parent="1" source="183" target="205" edge="1">
          <mxGeometry relative="1" as="geometry" />
        </mxCell>
        <mxCell id="235" value="" style="edgeStyle=orthogonalEdgeStyle;rounded=0;orthogonalLoop=1;jettySize=auto;html=1;entryX=0;entryY=0.5;entryDx=0;entryDy=0;exitX=0;exitY=0.5;exitDx=0;exitDy=0;" parent="1" source="183" target="170" edge="1">
          <mxGeometry relative="1" as="geometry" />
        </mxCell>
        <mxCell id="183" value="AuthAdapter" style="rounded=1;whiteSpace=wrap;html=1;strokeColor=#8BE9FD;fillColor=#8BE9FD;" parent="1" vertex="1">
          <mxGeometry x="320" y="300" width="150" height="50" as="geometry" />
        </mxCell>
        <mxCell id="184" value="" style="edgeStyle=elbowEdgeStyle;elbow=vertical;endArrow=classic;html=1;curved=0;rounded=0;endSize=8;startSize=8;entryX=0.5;entryY=1;entryDx=0;entryDy=0;strokeColor=#6C8EBF;exitX=0.5;exitY=0;exitDx=0;exitDy=0;" parent="1" source="178" target="183" edge="1">
          <mxGeometry width="50" height="50" relative="1" as="geometry">
            <mxPoint x="525" y="430" as="sourcePoint" />
            <mxPoint x="484" y="360" as="targetPoint" />
          </mxGeometry>
        </mxCell>
        <mxCell id="194" value="" style="edgeStyle=orthogonalEdgeStyle;rounded=0;orthogonalLoop=1;jettySize=auto;html=1;" parent="1" edge="1">
          <mxGeometry relative="1" as="geometry">
            <mxPoint x="585" y="210" as="sourcePoint" />
          </mxGeometry>
        </mxCell>
        <mxCell id="193" value="" style="edgeStyle=orthogonalEdgeStyle;rounded=0;orthogonalLoop=1;jettySize=auto;html=1;" parent="1" edge="1">
          <mxGeometry relative="1" as="geometry">
            <mxPoint x="585" y="89" as="targetPoint" />
          </mxGeometry>
        </mxCell>
        <mxCell id="208" value="" style="edgeStyle=orthogonalEdgeStyle;rounded=0;orthogonalLoop=1;jettySize=auto;html=1;" parent="1" source="198" target="207" edge="1">
          <mxGeometry relative="1" as="geometry" />
        </mxCell>
        <mxCell id="198" value="ICryptoAdapter" style="rounded=1;whiteSpace=wrap;html=1;strokeColor=#9673a6;fillColor=#BD93F9;dashed=1;" parent="1" vertex="1">
          <mxGeometry x="691.25" y="450" width="150" height="50" as="geometry" />
        </mxCell>
        <mxCell id="205" value="ValidationTokenEntityMapper" style="rounded=1;whiteSpace=wrap;html=1;strokeColor=#8BE9FD;fillColor=#8BE9FD;" parent="1" vertex="1">
          <mxGeometry x="305" y="210" width="180" height="50" as="geometry" />
        </mxCell>
        <mxCell id="237" value="" style="edgeStyle=orthogonalEdgeStyle;rounded=0;orthogonalLoop=1;jettySize=auto;html=1;entryX=0;entryY=0.5;entryDx=0;entryDy=0;exitX=0;exitY=0.5;exitDx=0;exitDy=0;" parent="1" source="207" target="236" edge="1">
          <mxGeometry relative="1" as="geometry" />
        </mxCell>
        <mxCell id="207" value="CryptoAdapter" style="rounded=1;whiteSpace=wrap;html=1;strokeColor=#8BE9FD;fillColor=#8BE9FD;" parent="1" vertex="1">
          <mxGeometry x="691.25" y="247" width="150" height="50" as="geometry" />
        </mxCell>
        <mxCell id="215" value="EmailAdapter" style="rounded=1;whiteSpace=wrap;html=1;strokeColor=#8BE9FD;fillColor=#8BE9FD;" parent="1" vertex="1">
          <mxGeometry x="510" y="247" width="150" height="50" as="geometry" />
        </mxCell>
        <mxCell id="218" value="" style="edgeStyle=orthogonalEdgeStyle;rounded=0;orthogonalLoop=1;jettySize=auto;html=1;" parent="1" source="216" target="215" edge="1">
          <mxGeometry relative="1" as="geometry" />
        </mxCell>
        <mxCell id="216" value="IEmailAdapter" style="rounded=1;whiteSpace=wrap;html=1;strokeColor=#9673a6;fillColor=#BD93F9;dashed=1;" parent="1" vertex="1">
          <mxGeometry x="510" y="450" width="150" height="50" as="geometry" />
        </mxCell>
        <mxCell id="219" value="JavaMailSender" style="rounded=1;whiteSpace=wrap;html=1;strokeColor=#8BE9FD;fillColor=#FF5555;" parent="1" vertex="1">
          <mxGeometry x="510" y="100" width="150" height="50" as="geometry" />
        </mxCell>
        <mxCell id="223" value="" style="edgeStyle=orthogonalEdgeStyle;rounded=0;orthogonalLoop=1;jettySize=auto;html=1;entryX=0.5;entryY=1;entryDx=0;entryDy=0;exitX=0.5;exitY=0;exitDx=0;exitDy=0;" parent="1" source="215" target="219" edge="1">
          <mxGeometry relative="1" as="geometry">
            <mxPoint x="405" y="310" as="sourcePoint" />
            <mxPoint x="405" y="260" as="targetPoint" />
          </mxGeometry>
        </mxCell>
        <mxCell id="224" value="" style="endArrow=classic;html=1;rounded=0;exitX=0;exitY=0.5;exitDx=0;exitDy=0;entryX=0.5;entryY=1;entryDx=0;entryDy=0;" parent="1" source="81" target="104" edge="1">
          <mxGeometry width="50" height="50" relative="1" as="geometry">
            <mxPoint x="330" y="350" as="sourcePoint" />
            <mxPoint x="380" y="300" as="targetPoint" />
            <Array as="points">
              <mxPoint x="205" y="555" />
            </Array>
          </mxGeometry>
        </mxCell>
        <mxCell id="225" value="" style="endArrow=classic;html=1;rounded=0;exitX=0;exitY=0.25;exitDx=0;exitDy=0;entryX=0.5;entryY=1;entryDx=0;entryDy=0;" parent="1" source="81" target="178" edge="1">
          <mxGeometry width="50" height="50" relative="1" as="geometry">
            <mxPoint x="390" y="549.6" as="sourcePoint" />
            <mxPoint x="390" y="510" as="targetPoint" />
            <Array as="points">
              <mxPoint x="395" y="543" />
            </Array>
          </mxGeometry>
        </mxCell>
        <mxCell id="226" value="" style="endArrow=classic;html=1;rounded=0;exitX=1;exitY=0.5;exitDx=0;exitDy=0;entryX=0.5;entryY=1;entryDx=0;entryDy=0;" parent="1" source="81" target="198" edge="1">
          <mxGeometry width="50" height="50" relative="1" as="geometry">
            <mxPoint x="850" y="565" as="sourcePoint" />
            <mxPoint x="639" y="490" as="targetPoint" />
            <Array as="points">
              <mxPoint x="766" y="555" />
            </Array>
          </mxGeometry>
        </mxCell>
        <mxCell id="229" value="" style="endArrow=classic;html=1;rounded=0;exitX=1;exitY=0.25;exitDx=0;exitDy=0;" parent="1" source="81" edge="1">
          <mxGeometry width="50" height="50" relative="1" as="geometry">
            <mxPoint x="588" y="565" as="sourcePoint" />
            <mxPoint x="620" y="500" as="targetPoint" />
            <Array as="points">
              <mxPoint x="620" y="543" />
            </Array>
          </mxGeometry>
        </mxCell>
        <mxCell id="233" value="JPARepository" style="rounded=1;whiteSpace=wrap;html=1;strokeColor=#8BE9FD;fillColor=#FF5555;" parent="1" vertex="1">
          <mxGeometry x="-70" y="300" width="150" height="50" as="geometry" />
        </mxCell>
        <mxCell id="236" value="DigestUtils" style="rounded=1;whiteSpace=wrap;html=1;strokeColor=#8BE9FD;fillColor=#FF5555;" parent="1" vertex="1">
          <mxGeometry x="691.25" y="115" width="150" height="50" as="geometry" />
        </mxCell>
        <mxCell id="241" value="Sentry" style="rounded=1;whiteSpace=wrap;html=1;strokeColor=#8BE9FD;fillColor=#FF5555;" vertex="1" parent="1">
          <mxGeometry x="-75" y="705" width="150" height="50" as="geometry" />
        </mxCell>
        <mxCell id="242" value="Swagger" style="rounded=1;whiteSpace=wrap;html=1;strokeColor=#8BE9FD;fillColor=#FF5555;" vertex="1" parent="1">
          <mxGeometry x="-75" y="765" width="150" height="50" as="geometry" />
        </mxCell>
        <mxCell id="243" value="springframework" style="rounded=1;whiteSpace=wrap;html=1;strokeColor=#8BE9FD;fillColor=#FF5555;" vertex="1" parent="1">
          <mxGeometry x="-75" y="825" width="150" height="50" as="geometry" />
        </mxCell>
        <mxCell id="244" value="" style="edgeStyle=orthogonalEdgeStyle;rounded=0;orthogonalLoop=1;jettySize=auto;html=1;entryX=0;entryY=0.5;entryDx=0;entryDy=0;exitX=0.25;exitY=0;exitDx=0;exitDy=0;" edge="1" parent="1" source="11" target="242">
          <mxGeometry relative="1" as="geometry">
            <mxPoint x="10" y="715" as="targetPoint" />
            <mxPoint x="471" y="700" as="sourcePoint" />
          </mxGeometry>
        </mxCell>
        <mxCell id="245" value="" style="edgeStyle=orthogonalEdgeStyle;rounded=0;orthogonalLoop=1;jettySize=auto;html=1;entryX=0;entryY=0.5;entryDx=0;entryDy=0;exitX=0.25;exitY=0;exitDx=0;exitDy=0;" edge="1" parent="1" source="11" target="243">
          <mxGeometry relative="1" as="geometry">
            <mxPoint x="-65" y="740" as="targetPoint" />
            <mxPoint x="471" y="700" as="sourcePoint" />
          </mxGeometry>
        </mxCell>
      </root>
    </mxGraphModel>
  </diagram>
</mxfile>
